<?xml version="1.0" encoding="UTF-8" ?>
<svg xmlns="http://www.w3.org/2000/svg" width="100" height="20" >
	<!-- Hintergrund -->
	<rect x="0" y="0" width="100" height="20" style="fill:#C0F000" />
	<!-- Beginn µ -->
	<rect x="4" y="9" width="1" height="9" style="fill:#00C000" />
	<rect x="5" y="12" width="1" height="1" style="fill:#00C000" />
	<rect x="6" y="13" width="2" height="1" style="fill:#00C000" />
	<rect x="8" y="12" width="1" height="1" style="fill:#00C000" />
	<rect x="9" y="9" width="1" height="3" style="fill:#00C000" />
	<rect x="5" y="9" width="1" height="3" style="fill:#005000" />
	<rect x="10" y="9" width="1" height="3" style="fill:#005000" />
	<rect x="5" y="13" width="1" height="5" style="fill:#005000" />
	<rect x="6" y="14" width="2" height="1" style="fill:#005000" />
	<rect x="6" y="12" width="1" height="1" style="fill:#005000" />
	<rect x="9" y="12" width="1" height="1" style="fill:#005000" />
	<rect x="8" y="13" width="1" height="1" style="fill:#005000" />
	<!-- Beginn C -->
	<rect x="14" y="4" width="1" height="9" style="fill:#00C000" />
	<rect x="15" y="4" width="5" height="1" style="fill:#00C000" />
	<rect x="15" y="12" width="5" height="1" style="fill:#00C000" />
	<rect x="14" y="13" width="7" height="1" style="fill:#005000" />
	<rect x="15" y="5" width="6" height="1" style="fill:#005000" />
	<rect x="20" y="4" width="1" height="1" style="fill:#005000" />
	<rect x="20" y="12" width="1" height="1" style="fill:#005000" />
	<rect x="15" y="6" width="1" height="6" style="fill:#005000" />
	<!-- Beginn H -->
	<rect x="24" y="4" width="1" height="9" style="fill:#00C000" />
	<rect x="29" y="4" width="1" height="9" style="fill:#00C000" />
	<rect x="24" y="8" width="5" height="1" style="fill:#00C000" />
	<rect x="30" y="4" width="1" height="10" style="fill:#005000" />
	<rect x="25" y="4" width="1" height="4" style="fill:#005000" />
	<rect x="25" y="9" width="1" height="5" style="fill:#005000" />
	<rect x="24" y="13" width="1" height="1" style="fill:#005000" />
	<rect x="29" y="13" width="1" height="1" style="fill:#005000" />
	<rect x="25" y="9" width="4" height="1" style="fill:#005000" />
	<!-- Beginn A -->
	<rect x="34" y="10" width="1" height="3" style="fill:#00C000" />
	<rect x="40" y="10" width="1" height="3" style="fill:#00C000" />
	<rect x="35" y="7" width="1" height="3" style="fill:#00C000" />
	<rect x="39" y="7" width="1" height="3" style="fill:#00C000" />
	<rect x="36" y="5" width="1" height="2" style="fill:#00C000" />
	<rect x="38" y="5" width="1" height="2" style="fill:#00C000" />
	<rect x="37" y="4" width="1" height="1" style="fill:#00C000" />
	<rect x="36" y="9" width="3" height="1" style="fill:#00C000" />
	<rect x="35" y="10" width="1" height="3" style="fill:#005000" />
	<rect x="41" y="10" width="1" height="3" style="fill:#005000" />
	<rect x="40" y="7" width="1" height="3" style="fill:#005000" />
	<rect x="34" y="13" width="2" height="1" style="fill:#005000" />
	<rect x="40" y="13" width="2" height="1" style="fill:#005000" />
	<rect x="38" y="4" width="1" height="1" style="fill:#005000" />
	<rect x="39" y="5" width="1" height="2" style="fill:#005000" />
	<rect x="37" y="5" width="1" height="2" style="fill:#005000" />
	<rect x="36" y="7" width="1" height="2" style="fill:#005000" />
	<rect x="36" y="10" width="4" height="1" style="fill:#005000" />
	<!-- Beginn N -->
	<rect x="45" y="4" width="1" height="9" style="fill:#00C000" />
	<rect x="51" y="4" width="1" height="9" style="fill:#00C000" />
	<rect x="46" y="6" width="1" height="1" style="fill:#00C000" />
	<rect x="47" y="7" width="1" height="1" style="fill:#00C000" />
	<rect x="48" y="8" width="1" height="1" style="fill:#00C000" />
	<rect x="49" y="9" width="1" height="1" style="fill:#00C000" />
	<rect x="50" y="10" width="1" height="1" style="fill:#00C000" />
	<rect x="52" y="4" width="1" height="9" style="fill:#005000" />
	<rect x="46" y="4" width="1" height="2" style="fill:#005000" />
	<rect x="46" y="7" width="1" height="6" style="fill:#005000" />
	<rect x="45" y="13" width="2" height="1" style="fill:#005000" />
	<rect x="51" y="13" width="2" height="1" style="fill:#005000" />
	<rect x="47" y="8" width="1" height="1" style="fill:#005000" />
	<rect x="48" y="9" width="1" height="1" style="fill:#005000" />
	<rect x="49" y="10" width="1" height="1" style="fill:#005000" />
	<rect x="50" y="11" width="1" height="1" style="fill:#005000" />
	<!-- Beginn 2 -->
	<rect x="60" y="4" width="6" height="1" style="fill:#00C000" />
	<rect x="60" y="8" width="6" height="1" style="fill:#00C000" />
	<rect x="60" y="12" width="6" height="1" style="fill:#00C000" />
	<rect x="65" y="5" width="1" height="3" style="fill:#00C000" />
	<rect x="60" y="9" width="1" height="3" style="fill:#00C000" />
	<rect x="60" y="13" width="7" height="1" style="fill:#005000" />
	<rect x="60" y="5" width="5" height="1" style="fill:#005000" />
	<rect x="61" y="9" width="6" height="1" style="fill:#005000" />
	<rect x="66" y="12" width="1" height="1" style="fill:#005000" />
	<rect x="66" y="4" width="1" height="5" style="fill:#005000" />
	<rect x="61" y="10" width="1" height="2" style="fill:#005000" />
	<!-- Beginn 0 -->
	<rect x="70" y="4" width="6" height="1" style="fill:#00C000" />
	<rect x="70" y="12" width="6" height="1" style="fill:#00C000" />
	<rect x="70" y="5" width="1" height="7" style="fill:#00C000" />
	<rect x="75" y="5" width="1" height="7" style="fill:#00C000" />
	<rect x="76" y="4" width="1" height="9" style="fill:#005000" />
	<rect x="70" y="13" width="7" height="1" style="fill:#005000" />
	<rect x="72" y="5" width="3" height="1" style="fill:#005000" />
	<rect x="71" y="5" width="1" height="7" style="fill:#005000" />
	<!-- Beginn 1 -->
	<rect x="85" y="4" width="1" height="9" style="fill:#00C000" />
	<rect x="86" y="4" width="1" height="10" style="fill:#005000" />
	<rect x="85" y="13" width="1" height="1" style="fill:#005000" />
	<!-- Beginn 9 -->
	<rect x="95" y="4" width="1" height="9" style="fill:#00C000" />
	<rect x="91" y="5" width="1" height="3" style="fill:#00C000" />
	<rect x="91" y="4" width="4" height="1" style="fill:#00C000" />
	<rect x="91" y="8" width="4" height="1" style="fill:#00C000" />
	<rect x="91" y="12" width="4" height="1" style="fill:#00C000" />
	<rect x="96" y="4" width="1" height="10" style="fill:#005000" />
	<rect x="91" y="13" width="5" height="1" style="fill:#005000" />
	<rect x="91" y="9" width="4" height="1" style="fill:#005000" />
	<rect x="92" y="5" width="3" height="1" style="fill:#005000" />
	<rect x="92" y="6" width="1" height="2" style="fill:#005000" />
</svg>